<svg width="384" height="88" viewBox="0 0 384 88" fill="none" xmlns="http://www.w3.org/2000/svg">
<path d="M121.056 78.192C117.216 78.192 115.296 77.168 115.296 75.12V14.64C115.296 12.08 116.576 10.8 119.136 10.8H150.72C152.64 10.8 153.6 12.4 153.6 15.6V18.576C153.6 21.776 152.64 23.376 150.72 23.376H130.08V40.272H150.048C151.968 40.272 152.928 41.872 152.928 45.072V48.048C152.928 51.248 151.968 52.848 150.048 52.848H130.08V75.12C130.08 77.168 128.16 78.192 124.32 78.192H121.056ZM167.705 78.192C163.865 78.192 161.945 77.168 161.945 75.12V30.672C161.945 28.624 163.865 27.6 167.705 27.6H170.393C174.233 27.6 176.153 28.624 176.153 30.672V75.12C176.153 77.168 174.233 78.192 170.393 78.192H167.705ZM169.049 22.896C166.553 22.896 164.729 22.64 163.577 22.128C162.489 21.616 161.945 20.848 161.945 19.824V12.336C161.945 11.312 162.489 10.544 163.577 10.032C164.729 9.52 166.553 9.264 169.049 9.264C171.545 9.264 173.337 9.52 174.425 10.032C175.577 10.544 176.153 11.312 176.153 12.336V19.824C176.153 20.848 175.577 21.616 174.425 22.128C173.337 22.64 171.545 22.896 169.049 22.896ZM201.752 78.768C199.512 78.768 197.496 78.48 195.704 77.904C193.976 77.264 192.504 76.304 191.288 75.024C190.136 73.744 189.24 72.144 188.6 70.224C188.024 68.24 187.736 65.904 187.736 63.216V8.688C187.736 6.64 189.656 5.616 193.496 5.616H196.184C200.024 5.616 201.944 6.64 201.944 8.688V63.408C201.944 64.816 202.2 65.872 202.712 66.576C203.288 67.216 204.184 67.536 205.4 67.536C205.848 67.536 206.328 67.472 206.84 67.344C207.352 67.216 207.736 67.152 207.992 67.152C208.632 67.152 209.176 67.696 209.624 68.784C210.072 69.808 210.392 70.896 210.584 72.048C210.84 73.136 210.968 73.808 210.968 74.064C210.968 75.536 210.392 76.624 209.24 77.328C208.152 77.968 206.872 78.352 205.4 78.48C203.992 78.672 202.776 78.768 201.752 78.768ZM236.088 78.768C227.384 78.768 221.016 76.464 216.984 71.856C213.016 67.184 211.032 60.976 211.032 53.232C211.032 46.896 212.024 41.808 214.008 37.968C215.992 34.128 218.744 31.344 222.264 29.616C225.784 27.888 229.816 27.024 234.36 27.024C239.416 27.024 243.448 28.176 246.456 30.48C249.464 32.72 251.64 35.728 252.984 39.504C254.392 43.216 255.096 47.312 255.096 51.792C255.096 52.304 254.776 53.04 254.136 54C253.496 54.896 252.792 55.696 252.024 56.4C251.256 57.104 250.648 57.456 250.2 57.456H225.72C226.04 61.296 227.16 63.952 229.08 65.424C231.064 66.832 233.624 67.536 236.76 67.536C238.808 67.536 240.6 67.28 242.136 66.768C243.736 66.256 245.048 65.776 246.072 65.328C247.16 64.816 247.928 64.56 248.376 64.56C249.08 64.56 249.816 65.04 250.584 66C251.352 66.96 251.992 68.016 252.504 69.168C253.08 70.32 253.368 71.216 253.368 71.856C253.368 73.072 252.728 74.128 251.448 75.024C250.232 75.856 248.664 76.56 246.744 77.136C244.888 77.712 242.968 78.128 240.984 78.384C239.064 78.64 237.432 78.768 236.088 78.768ZM225.72 47.952H241.272C241.272 45.136 240.728 42.832 239.64 41.04C238.552 39.184 236.792 38.256 234.36 38.256C232.376 38.256 230.584 38.96 228.984 40.368C227.384 41.712 226.296 44.24 225.72 47.952ZM292.926 78.768C284.158 78.768 277.31 76.752 272.382 72.72C267.518 68.624 265.086 62.896 265.086 55.536V13.68C265.086 11.632 267.006 10.608 270.846 10.608H274.11C277.95 10.608 279.87 11.632 279.87 13.68V54.576C279.87 56.816 280.414 58.832 281.502 60.624C282.59 62.352 284.126 63.728 286.11 64.752C288.094 65.712 290.366 66.192 292.926 66.192C295.55 66.192 297.822 65.712 299.742 64.752C301.726 63.728 303.262 62.352 304.35 60.624C305.502 58.832 306.078 56.816 306.078 54.576V13.68C306.078 11.632 307.998 10.608 311.838 10.608H315.006C318.846 10.608 320.766 11.632 320.766 13.68V55.536C320.766 62.896 318.302 68.624 313.374 72.72C308.51 76.752 301.694 78.768 292.926 78.768ZM339.478 78.192C335.638 78.192 333.718 77.168 333.718 75.12V14.64C333.718 12.08 334.998 10.8 337.558 10.8H357.718C359.83 10.8 362.198 11.056 364.822 11.568C367.446 12.016 369.942 12.944 372.31 14.352C374.742 15.76 376.726 17.872 378.262 20.688C379.798 23.504 380.566 27.216 380.566 31.824C380.566 35.536 379.99 38.64 378.838 41.136C377.686 43.632 376.182 45.68 374.326 47.28C372.534 48.816 370.614 50 368.566 50.832C366.582 51.6 364.694 52.144 362.902 52.464C361.11 52.72 359.702 52.848 358.678 52.848H348.502V75.12C348.502 77.168 346.582 78.192 342.742 78.192H339.478ZM348.502 40.176H357.046C357.942 40.176 358.87 40.08 359.83 39.888C360.854 39.632 361.782 39.216 362.614 38.64C363.446 38 364.118 37.136 364.63 36.048C365.142 34.96 365.398 33.552 365.398 31.824C365.398 29.52 364.95 27.76 364.054 26.544C363.158 25.328 362.07 24.496 360.79 24.048C359.51 23.6 358.262 23.376 357.046 23.376H348.502V40.176Z" fill="white"/>
<path d="M77.74 86.71L29.31 86.82L5 44.03L29.11 1.11L77.54 1L101.85 43.79L77.74 86.71Z" fill="white" stroke="white" stroke-linecap="round"/>
<path d="M52.87 59.85C51.22 61.75 49.25 63.23 46.96 64.31C44.66 65.39 42.16 65.93 39.45 65.93C36.74 65.93 34.24 65.4 31.94 64.34C29.67 63.28 27.69 61.79 26 59.88C24.32 57.94 23.01 55.68 22.08 53.09C21.15 50.48 20.68 47.64 20.68 44.57C20.68 41.49 21.15 38.65 22.08 36.06C23.01 33.45 24.32 31.18 26 29.27C27.69 27.35 29.67 25.86 31.94 24.81C34.24 23.75 36.74 23.22 39.45 23.22C42.14 23.22 44.64 23.76 46.93 24.83C49.23 25.89 51.2 27.37 52.85 29.27L49.89 32.69C48.61 31.07 47.07 29.8 45.27 28.88C43.48 27.95 41.51 27.49 39.38 27.49C37.31 27.49 35.4 27.92 33.65 28.78C31.9 29.61 30.38 30.81 29.08 32.36C27.8 33.89 26.8 35.7 26.07 37.78C25.37 39.86 25.01 42.13 25.01 44.57C25.01 47.04 25.37 49.31 26.07 51.39C26.8 53.45 27.8 55.26 29.08 56.81C30.38 58.34 31.9 59.54 33.65 60.4C35.4 61.24 37.31 61.66 39.38 61.66C41.51 61.66 43.48 61.2 45.27 60.29C47.07 59.36 48.61 58.08 49.89 56.45L52.87 59.85Z" fill="#002B4D" stroke="#002B4D" stroke-linecap="round"/>
<path d="M82.67 65.54H59.67V24.24H64.07V61.24H82.67V65.54Z" fill="#002B4D" stroke="#002B4D" stroke-linecap="round"/>
</svg>
