<svg width="100" height="100" viewBox="0 0 100 100" fill="none" xmlns="http://www.w3.org/2000/svg">
<g clip-path="url(#clip0_4_2)">
<path d="M48.6509 0C51.7609 0.02 59.4308 1.25 63.0108 2.32C66.4308 3.37 73.0908 6.42 76.0408 8.49C79.0608 10.65 84.4008 15.65 86.7208 18.47C89.3108 21.66 92.4308 27.06 93.9008 30.89C95.1908 34.31 96.8509 41.43 97.2109 45.12C97.5409 48.71 96.8508 55.99 96.0508 59.47C95.1908 63.11 92.4309 70.36 90.8809 73.06C89.3109 75.75 84.4009 81.77 81.6809 84.33C79.0609 86.76 73.0909 91 69.8209 92.51C66.4309 94.04 59.4309 96.17 55.8309 96.76C51.7609 97.4 45.5308 97.4 41.4608 96.76C37.8608 96.17 30.8609 94.04 27.4708 92.51C24.2009 91 18.2308 86.76 15.6108 84.33C12.8908 81.77 7.98085 75.75 6.41085 73.06C4.87085 70.36 2.10085 63.11 1.24085 59.47C0.44085 55.99 -0.239151 48.71 0.0808495 45.12C0.440849 41.43 2.10085 34.31 3.39085 30.89C4.87085 27.06 7.98085 21.66 10.5708 18.47C12.8908 15.65 18.2308 10.65 21.2608 8.49C24.2008 6.42 30.8608 3.37 34.2808 2.32C37.8608 1.25 45.5309 0.02 48.6509 0Z" fill="white" stroke="white" stroke-width="0.1" stroke-linecap="round" stroke-linejoin="round"/>
<path d="M23.9508 40.3L62.4408 19.94C63.5708 22.44 67.2208 30.54 68.0508 32.78C69.5108 36.79 71.1308 45.5 71.2008 49.66C71.2308 51.99 70.6908 60.53 70.5208 63.17L27.4208 59.07L32.4908 78.7L22.8308 81.16L17.5908 59.97C16.4108 59.74 13.2008 59.09 12.3808 58.85C10.7708 58.34 8.33085 55.93 7.89085 54.17C7.50085 52.41 8.62085 49.18 9.84085 48.02C10.4608 47.46 13.0708 45.48 14.0108 44.76L23.9508 40.3Z" fill="#005392" stroke="#005392" stroke-width="0.1" stroke-linecap="round"/>
<path d="M61.2209 22.49C61.5309 33 62.4309 43.94 65.2409 51.96C65.6609 53.14 68.5809 60.58 69.0309 61.73L66.6309 62.31C62.8509 52.82 59.7109 43.28 59.1709 35.27C59.0309 33.1 58.9609 25.08 58.9409 22.6L61.2209 22.49Z" fill="white" stroke="white" stroke-width="0.1" stroke-linecap="round"/>
<path d="M24.1508 39.89L14.1208 45.05L17.0708 59.75L27.5708 58.81L24.1508 39.89Z" fill="white" stroke="white" stroke-width="0.1" stroke-linecap="round"/>
<path d="M90.1308 38.85C90.3442 39.4967 89.8308 39.8567 88.5908 39.93C85.6175 40.11 82.6442 40.2867 79.6708 40.46C78.4308 40.5333 77.7042 40.25 77.4908 39.61C77.2775 38.9633 77.7908 38.6033 79.0308 38.53C82.0042 38.35 84.9742 38.1733 87.9408 38C89.1875 37.92 89.9175 38.2033 90.1308 38.85Z" fill="#005392" stroke="#005392" stroke-width="0.1" stroke-linecap="round" stroke-linejoin="round"/>
<path d="M78.7909 15.16C79.3775 15.6133 79.2375 16.22 78.3709 16.98C76.3042 18.8067 74.2375 20.6367 72.1709 22.47C71.3109 23.23 70.5909 23.3833 70.0109 22.93C69.4242 22.4767 69.5642 21.87 70.4309 21.11C72.4975 19.2833 74.5642 17.4567 76.6309 15.63C77.4909 14.8633 78.2109 14.7067 78.7909 15.16Z" fill="#005392" stroke="#005392" stroke-width="0.1" stroke-linecap="round" stroke-linejoin="round"/>
<path d="M87.9409 62.31C87.7142 63.0233 87.0842 63.1133 86.0509 62.58C83.5775 61.2933 81.1042 60.01 78.6309 58.73C77.5975 58.19 77.1975 57.5633 77.4309 56.85C77.6575 56.1367 78.2875 56.0467 79.3209 56.58C81.7942 57.8667 84.2675 59.15 86.7409 60.43C87.7742 60.97 88.1742 61.5967 87.9409 62.31Z" fill="#005392" stroke="#005392" stroke-width="0.1" stroke-linecap="round" stroke-linejoin="round"/>
</g>
<defs>
<clipPath id="clip0_4_2">
<rect width="100" height="100" fill="white"/>
</clipPath>
</defs>
</svg>
