<svg width="360" height="135" viewBox="0 0 360 135" fill="none" xmlns="http://www.w3.org/2000/svg">
<path d="M74.056 113.192C70.216 113.192 68.296 112.168 68.296 110.12V49.64C68.296 47.08 69.576 45.8 72.136 45.8H103.72C105.64 45.8 106.6 47.4 106.6 50.6V53.576C106.6 56.776 105.64 58.376 103.72 58.376H83.08V75.272H103.048C104.968 75.272 105.928 76.872 105.928 80.072V83.048C105.928 86.248 104.968 87.848 103.048 87.848H83.08V110.12C83.08 112.168 81.16 113.192 77.32 113.192H74.056ZM120.705 113.192C116.865 113.192 114.945 112.168 114.945 110.12V65.672C114.945 63.624 116.865 62.6 120.705 62.6H123.393C127.233 62.6 129.153 63.624 129.153 65.672V110.12C129.153 112.168 127.233 113.192 123.393 113.192H120.705ZM122.049 57.896C119.553 57.896 117.729 57.64 116.577 57.128C115.489 56.616 114.945 55.848 114.945 54.824V47.336C114.945 46.312 115.489 45.544 116.577 45.032C117.729 44.52 119.553 44.264 122.049 44.264C124.545 44.264 126.337 44.52 127.425 45.032C128.577 45.544 129.153 46.312 129.153 47.336V54.824C129.153 55.848 128.577 56.616 127.425 57.128C126.337 57.64 124.545 57.896 122.049 57.896ZM154.752 113.768C152.512 113.768 150.496 113.48 148.704 112.904C146.976 112.264 145.504 111.304 144.288 110.024C143.136 108.744 142.24 107.144 141.6 105.224C141.024 103.24 140.736 100.904 140.736 98.216V43.688C140.736 41.64 142.656 40.616 146.496 40.616H149.184C153.024 40.616 154.944 41.64 154.944 43.688V98.408C154.944 99.816 155.2 100.872 155.712 101.576C156.288 102.216 157.184 102.536 158.4 102.536C158.848 102.536 159.328 102.472 159.84 102.344C160.352 102.216 160.736 102.152 160.992 102.152C161.632 102.152 162.176 102.696 162.624 103.784C163.072 104.808 163.392 105.896 163.584 107.048C163.84 108.136 163.968 108.808 163.968 109.064C163.968 110.536 163.392 111.624 162.24 112.328C161.152 112.968 159.872 113.352 158.4 113.48C156.992 113.672 155.776 113.768 154.752 113.768ZM189.088 113.768C180.384 113.768 174.016 111.464 169.984 106.856C166.016 102.184 164.032 95.976 164.032 88.232C164.032 81.896 165.024 76.808 167.008 72.968C168.992 69.128 171.744 66.344 175.264 64.616C178.784 62.888 182.816 62.024 187.36 62.024C192.416 62.024 196.448 63.176 199.456 65.48C202.464 67.72 204.64 70.728 205.984 74.504C207.392 78.216 208.096 82.312 208.096 86.792C208.096 87.304 207.776 88.04 207.136 89C206.496 89.896 205.792 90.696 205.024 91.4C204.256 92.104 203.648 92.456 203.2 92.456H178.72C179.04 96.296 180.16 98.952 182.08 100.424C184.064 101.832 186.624 102.536 189.76 102.536C191.808 102.536 193.6 102.28 195.136 101.768C196.736 101.256 198.048 100.776 199.072 100.328C200.16 99.816 200.928 99.56 201.376 99.56C202.08 99.56 202.816 100.04 203.584 101C204.352 101.96 204.992 103.016 205.504 104.168C206.08 105.32 206.368 106.216 206.368 106.856C206.368 108.072 205.728 109.128 204.448 110.024C203.232 110.856 201.664 111.56 199.744 112.136C197.888 112.712 195.968 113.128 193.984 113.384C192.064 113.64 190.432 113.768 189.088 113.768ZM178.72 82.952H194.272C194.272 80.136 193.728 77.832 192.64 76.04C191.552 74.184 189.792 73.256 187.36 73.256C185.376 73.256 183.584 73.96 181.984 75.368C180.384 76.712 179.296 79.24 178.72 82.952ZM245.926 113.768C237.158 113.768 230.31 111.752 225.382 107.72C220.518 103.624 218.086 97.896 218.086 90.536V48.68C218.086 46.632 220.006 45.608 223.846 45.608H227.11C230.95 45.608 232.87 46.632 232.87 48.68V89.576C232.87 91.816 233.414 93.832 234.502 95.624C235.59 97.352 237.126 98.728 239.11 99.752C241.094 100.712 243.366 101.192 245.926 101.192C248.55 101.192 250.822 100.712 252.742 99.752C254.726 98.728 256.262 97.352 257.35 95.624C258.502 93.832 259.078 91.816 259.078 89.576V48.68C259.078 46.632 260.998 45.608 264.838 45.608H268.006C271.846 45.608 273.766 46.632 273.766 48.68V90.536C273.766 97.896 271.302 103.624 266.374 107.72C261.51 111.752 254.694 113.768 245.926 113.768ZM292.478 113.192C288.638 113.192 286.718 112.168 286.718 110.12V49.64C286.718 47.08 287.998 45.8 290.558 45.8H310.718C312.83 45.8 315.198 46.056 317.822 46.568C320.446 47.016 322.942 47.944 325.31 49.352C327.742 50.76 329.726 52.872 331.262 55.688C332.798 58.504 333.566 62.216 333.566 66.824C333.566 70.536 332.99 73.64 331.838 76.136C330.686 78.632 329.182 80.68 327.326 82.28C325.534 83.816 323.614 85 321.566 85.832C319.582 86.6 317.694 87.144 315.902 87.464C314.11 87.72 312.702 87.848 311.678 87.848H301.502V110.12C301.502 112.168 299.582 113.192 295.742 113.192H292.478ZM301.502 75.176H310.046C310.942 75.176 311.87 75.08 312.83 74.888C313.854 74.632 314.782 74.216 315.614 73.64C316.446 73 317.118 72.136 317.63 71.048C318.142 69.96 318.398 68.552 318.398 66.824C318.398 64.52 317.95 62.76 317.054 61.544C316.158 60.328 315.07 59.496 313.79 59.048C312.51 58.6 311.262 58.376 310.046 58.376H301.502V75.176Z" fill="#005392"/>
<rect x="1" y="51" width="46.087" height="53.7511" fill="#005392" stroke="#005392" stroke-width="2"/>
<line x1="12.0217" y1="60.615" x2="33.6609" y2="60.615" stroke="white" stroke-width="2"/>
<line x1="12.0217" y1="69.9065" x2="33.6609" y2="69.9065" stroke="white" stroke-width="2"/>
<line x1="12.0217" y1="79.1985" x2="33.6609" y2="79.1985" stroke="white" stroke-width="2"/>
<path d="M54.8001 98.7825C54.8001 106.152 48.0823 112.22 39.6718 112.22C31.2614 112.22 24.5436 106.152 24.5436 98.7825C24.5436 91.4133 31.2614 85.3447 39.6718 85.3447C48.0823 85.3447 54.8001 91.4133 54.8001 98.7825Z" fill="#005392" stroke="white"/>
<path d="M40.0253 90.2981C39.83 90.1028 39.5134 90.1028 39.3182 90.2981L36.1362 93.4801C35.9409 93.6753 35.9409 93.9919 36.1362 94.1872C36.3315 94.3824 36.648 94.3824 36.8433 94.1872L39.6717 91.3588L42.5002 94.1872C42.6954 94.3824 43.012 94.3824 43.2073 94.1872C43.4025 93.9919 43.4025 93.6753 43.2073 93.4801L40.0253 90.2981ZM40.1717 109.235V90.6516H39.1717V109.235H40.1717Z" fill="white"/>
<path d="M177.96 37.32C173.48 37.32 170.16 36.16 168 33.84C165.867 31.4933 164.8 27.8533 164.8 22.92C164.8 13.4267 169.253 8.68 178.16 8.68C179.013 8.68 179.893 8.74667 180.8 8.88C181.733 8.98666 182.613 9.16 183.44 9.4C184.267 9.61333 184.947 9.88 185.48 10.2C186.173 10.6 186.52 11.0267 186.52 11.48C186.52 11.8533 186.373 12.3467 186.08 12.96C185.787 13.5467 185.44 14.08 185.04 14.56C184.64 15.0133 184.267 15.24 183.92 15.24C183.76 15.24 183.453 15.1333 183 14.92C182.573 14.7067 181.96 14.4933 181.16 14.28C180.36 14.0667 179.32 13.96 178.04 13.96C175.693 13.96 173.947 14.7067 172.8 16.2C171.68 17.6933 171.12 19.9467 171.12 22.96C171.12 25.9467 171.68 28.2133 172.8 29.76C173.947 31.3067 175.667 32.08 177.96 32.08C179.24 32.08 180.32 31.9467 181.2 31.68C182.107 31.4133 182.84 31.1467 183.4 30.88C183.96 30.6133 184.333 30.48 184.52 30.48C184.947 30.48 185.333 30.72 185.68 31.2C186.053 31.68 186.347 32.2 186.56 32.76C186.773 33.32 186.88 33.72 186.88 33.96C186.88 34.3333 186.747 34.68 186.48 35C186.24 35.2933 185.907 35.56 185.48 35.8C184.84 36.1467 184.067 36.44 183.16 36.68C182.28 36.8933 181.373 37.0533 180.44 37.16C179.533 37.2667 178.707 37.32 177.96 37.32ZM196.126 37.32C195.192 37.32 194.352 37.2 193.606 36.96C192.886 36.6933 192.272 36.2933 191.766 35.76C191.286 35.2267 190.912 34.56 190.646 33.76C190.406 32.9333 190.286 31.96 190.286 30.84V8.12C190.286 7.26667 191.086 6.84 192.686 6.84H193.806C195.406 6.84 196.206 7.26667 196.206 8.12V30.92C196.206 31.5067 196.312 31.9467 196.526 32.24C196.766 32.5067 197.139 32.64 197.646 32.64C197.832 32.64 198.032 32.6133 198.246 32.56C198.459 32.5067 198.619 32.48 198.726 32.48C198.992 32.48 199.219 32.7067 199.406 33.16C199.592 33.5867 199.726 34.04 199.806 34.52C199.912 34.9733 199.966 35.2533 199.966 35.36C199.966 35.9733 199.726 36.4267 199.246 36.72C198.792 36.9867 198.259 37.1467 197.646 37.2C197.059 37.28 196.552 37.32 196.126 37.32ZM209.713 37.32C206.539 37.32 204.126 36.3867 202.473 34.52C200.819 32.6533 199.993 29.9867 199.993 26.52C199.993 23.0267 200.819 20.36 202.473 18.52C204.126 16.68 206.539 15.76 209.713 15.76C212.886 15.76 215.286 16.68 216.913 18.52C218.566 20.36 219.393 23.0267 219.393 26.52C219.393 29.9867 218.566 32.6533 216.913 34.52C215.286 36.3867 212.886 37.32 209.713 37.32ZM209.713 32.64C210.993 32.64 211.926 32.12 212.513 31.08C213.099 30.04 213.393 28.52 213.393 26.52C213.393 24.52 213.099 23.0133 212.513 22C211.926 20.96 210.993 20.44 209.713 20.44C208.433 20.44 207.486 20.96 206.873 22C206.286 23.0133 205.993 24.52 205.993 26.52C205.993 28.52 206.286 30.04 206.873 31.08C207.486 32.12 208.433 32.64 209.713 32.64ZM229.326 37.32C227.326 37.32 225.846 36.8 224.886 35.76C223.926 34.6933 223.446 33.0533 223.446 30.84V17.28C223.446 16.4267 224.246 16 225.846 16H226.966C228.566 16 229.366 16.4267 229.366 17.28V29.96C229.366 30.7333 229.539 31.3467 229.886 31.8C230.259 32.2267 230.886 32.44 231.766 32.44C232.593 32.44 233.273 32.1733 233.806 31.64C234.339 31.08 234.726 30.5733 234.966 30.12V17.28C234.966 16.4267 235.766 16 237.366 16H238.486C240.086 16 240.886 16.4267 240.886 17.28V29.96C240.886 31.3467 240.926 32.4133 241.006 33.16C241.086 33.88 241.166 34.4267 241.246 34.8C241.326 35.1467 241.366 35.4667 241.366 35.76C241.366 36 241.179 36.2 240.806 36.36C240.459 36.52 240.019 36.6533 239.486 36.76C238.979 36.8667 238.473 36.9467 237.966 37C237.486 37.0267 237.126 37.04 236.886 37.04C236.459 37.04 236.139 36.8933 235.926 36.6C235.739 36.28 235.606 35.9067 235.526 35.48C235.446 35.0267 235.366 34.6267 235.286 34.28C234.699 35.0267 233.886 35.72 232.846 36.36C231.806 37 230.633 37.32 229.326 37.32ZM252.512 37.32C251.072 37.32 249.792 36.9067 248.672 36.08C247.552 35.2533 246.658 34.04 245.992 32.44C245.352 30.8133 245.032 28.84 245.032 26.52C245.032 23.2667 245.765 20.6667 247.232 18.72C248.698 16.7467 250.778 15.76 253.472 15.76C254.405 15.76 255.205 15.8933 255.872 16.16C256.565 16.4267 257.125 16.7067 257.552 17V8.12C257.552 7.26667 258.352 6.84 259.952 6.84H261.072C262.672 6.84 263.472 7.26667 263.472 8.12V29.96C263.472 31.3467 263.512 32.4133 263.592 33.16C263.672 33.88 263.752 34.4267 263.832 34.8C263.912 35.1467 263.952 35.4667 263.952 35.76C263.952 36 263.765 36.2 263.392 36.36C263.045 36.52 262.605 36.6533 262.072 36.76C261.565 36.8667 261.058 36.9467 260.552 37C260.072 37.0267 259.712 37.04 259.472 37.04C259.045 37.04 258.725 36.8933 258.512 36.6C258.325 36.28 258.192 35.9067 258.112 35.48C258.032 35.0533 257.952 34.6667 257.872 34.32C257.418 35.1733 256.725 35.8933 255.792 36.48C254.858 37.04 253.765 37.32 252.512 37.32ZM254.272 32.48C255.045 32.48 255.698 32.24 256.232 31.76C256.765 31.28 257.205 30.7333 257.552 30.12V21.2C257.232 21.0133 256.832 20.84 256.352 20.68C255.898 20.52 255.365 20.44 254.752 20.44C253.498 20.44 252.565 20.96 251.952 22C251.338 23.0133 251.032 24.52 251.032 26.52C251.032 28.4667 251.298 29.9467 251.832 30.96C252.365 31.9733 253.178 32.48 254.272 32.48ZM270.609 37C269.542 37 269.009 36.4667 269.009 35.4V10.2C269.009 9.34667 269.809 8.92 271.409 8.92H272.769C274.369 8.92 275.169 9.34667 275.169 10.2V31.76H283.809C284.609 31.76 285.009 32.4267 285.009 33.76V35C285.009 36.3333 284.609 37 283.809 37H270.609ZM292.944 37.32C290.784 37.32 289.25 36.76 288.344 35.64C287.464 34.4933 287.024 33.1067 287.024 31.48C287.024 30.6533 287.144 29.8133 287.384 28.96C287.65 28.08 288.17 27.2667 288.944 26.52C289.717 25.7733 290.864 25.1733 292.384 24.72C293.93 24.2667 295.97 24.04 298.504 24.04V22.72C298.504 21.9467 298.25 21.3733 297.744 21C297.264 20.6267 296.477 20.44 295.384 20.44C294.424 20.44 293.584 20.5467 292.864 20.76C292.17 20.9733 291.597 21.1867 291.144 21.4C290.717 21.6133 290.424 21.72 290.264 21.72C289.997 21.72 289.69 21.52 289.344 21.12C289.024 20.6933 288.744 20.2267 288.504 19.72C288.29 19.1867 288.184 18.7867 288.184 18.52C288.184 18.0667 288.504 17.6267 289.144 17.2C289.81 16.7733 290.717 16.4267 291.864 16.16C293.037 15.8933 294.357 15.76 295.824 15.76C297.93 15.76 299.61 16.0533 300.864 16.64C302.117 17.2 303.024 17.9867 303.584 19C304.144 19.9867 304.424 21.1333 304.424 22.44V29.96C304.424 31.3467 304.464 32.4133 304.544 33.16C304.624 33.88 304.704 34.4267 304.784 34.8C304.864 35.1467 304.904 35.4667 304.904 35.76C304.904 36 304.717 36.2 304.344 36.36C303.997 36.52 303.557 36.6533 303.024 36.76C302.517 36.8667 302.01 36.9467 301.504 37C301.024 37.0267 300.664 37.04 300.424 37.04C299.997 37.04 299.677 36.8933 299.464 36.6C299.277 36.28 299.144 35.9067 299.064 35.48C298.984 35.0267 298.904 34.6267 298.824 34.28C298.744 34.44 298.464 34.7733 297.984 35.28C297.53 35.76 296.877 36.2267 296.024 36.68C295.197 37.1067 294.17 37.32 292.944 37.32ZM294.904 32.64C295.677 32.64 296.384 32.4 297.024 31.92C297.69 31.44 298.184 30.84 298.504 30.12V27.92C297.544 27.92 296.717 27.9867 296.024 28.12C295.33 28.2533 294.744 28.44 294.264 28.68C293.81 28.92 293.464 29.2267 293.224 29.6C293.01 29.9733 292.904 30.4 292.904 30.88C292.904 31.3867 293.064 31.8133 293.384 32.16C293.73 32.48 294.237 32.64 294.904 32.64ZM320.741 37.32C319.514 37.32 318.421 37.04 317.461 36.48C316.527 35.8933 315.834 35.1733 315.381 34.32C315.274 34.88 315.087 35.4533 314.821 36.04C314.634 36.4667 314.381 36.7467 314.061 36.88C313.741 37.0133 313.274 37.08 312.661 37.08H312.181C310.581 37.08 309.781 36.6533 309.781 35.8V8.12C309.781 7.26667 310.581 6.84 312.181 6.84H313.301C314.901 6.84 315.701 7.26667 315.701 8.12V17C316.127 16.7067 316.674 16.4267 317.341 16.16C318.034 15.8933 318.847 15.76 319.781 15.76C322.474 15.76 324.554 16.7467 326.021 18.72C327.487 20.6667 328.221 23.2667 328.221 26.52C328.221 28.84 327.901 30.8133 327.261 32.44C326.621 34.04 325.727 35.2533 324.581 36.08C323.461 36.9067 322.181 37.32 320.741 37.32ZM318.981 32.48C320.074 32.48 320.887 31.9733 321.421 30.96C321.954 29.9467 322.221 28.4667 322.221 26.52C322.221 24.52 321.914 23.0133 321.301 22C320.687 20.96 319.754 20.44 318.501 20.44C317.887 20.44 317.341 20.52 316.861 20.68C316.407 20.84 316.021 21.0133 315.701 21.2V30.12C316.074 30.7333 316.527 31.28 317.061 31.76C317.594 32.24 318.234 32.48 318.981 32.48Z" fill="#005392"/>
</svg>
